<svg xmlns="http://www.w3.org/2000/svg" width="193" height="193" viewBox="0 0 193 193">
  <g id="instagram-logo" transform="translate(1 1)">
    <path id="Caminho_3" data-name="Caminho 3" d="M95.5,17.208c25.5,0,28.519.1,38.589.557,9.311.425,14.368,1.981,17.734,3.288A29.6,29.6,0,0,1,162.8,28.2a29.592,29.592,0,0,1,7.144,10.981c1.308,3.365,2.863,8.422,3.289,17.733.459,10.07.556,13.091.556,38.59s-.1,28.52-.556,38.59c-.425,9.311-1.981,14.368-3.289,17.733a31.623,31.623,0,0,1-18.124,18.124c-3.366,1.308-8.423,2.864-17.734,3.289-10.069.46-13.089.557-38.589.557s-28.522-.1-38.59-.557c-9.311-.425-14.368-1.981-17.733-3.289A29.579,29.579,0,0,1,28.2,162.8a29.591,29.591,0,0,1-7.144-10.981c-1.308-3.366-2.864-8.422-3.289-17.733-.459-10.07-.557-13.09-.557-38.59s.1-28.52.557-38.59c.425-9.311,1.981-14.368,3.289-17.733A29.588,29.588,0,0,1,28.2,28.2a29.593,29.593,0,0,1,10.981-7.144c3.365-1.307,8.422-2.863,17.733-3.288C66.98,17.3,70,17.208,95.5,17.208M95.5,0C69.563,0,66.312.11,56.125.575,45.96,1.039,39.018,2.653,32.943,5.014A46.812,46.812,0,0,0,16.029,16.029,46.813,46.813,0,0,0,5.013,32.944C2.652,39.019,1.038,45.961.574,56.126.11,66.312,0,69.564,0,95.5s.11,29.189.574,39.374c.464,10.166,2.078,17.107,4.439,23.182a46.816,46.816,0,0,0,11.015,16.915,46.808,46.808,0,0,0,16.915,11.015c6.075,2.361,13.017,3.975,23.182,4.439,10.186.465,13.438.574,39.375.574s29.189-.11,39.374-.574c10.165-.464,17.107-2.078,23.182-4.439a48.831,48.831,0,0,0,27.93-27.93c2.361-6.075,3.975-13.016,4.439-23.182.465-10.186.574-13.438.574-39.374s-.11-29.188-.574-39.374c-.464-10.165-2.079-17.107-4.439-23.182a46.81,46.81,0,0,0-11.015-16.915A46.813,46.813,0,0,0,158.056,5.014c-6.075-2.361-13.017-3.975-23.182-4.439C124.689.11,121.436,0,95.5,0Zm0,46.459A49.041,49.041,0,1,0,144.541,95.5,49.041,49.041,0,0,0,95.5,46.459Zm0,80.874A31.833,31.833,0,1,1,127.334,95.5,31.834,31.834,0,0,1,95.5,127.334Zm62.438-82.812a11.46,11.46,0,1,1-11.459-11.46A11.46,11.46,0,0,1,157.938,44.522Z" transform="translate(0 0)" fill="#fab3ff" stroke="#000" stroke-width="2"/>
  </g>
</svg>