<svg xmlns="http://www.w3.org/2000/svg" width="193" height="137.156" viewBox="0 0 193 137.156">
  <g id="youtube-logo" transform="translate(1 -66.393)">
    <path id="Caminho_5" data-name="Caminho 5" d="M151.332,67.393H39.668A39.668,39.668,0,0,0,0,107.061v55.82a39.668,39.668,0,0,0,39.668,39.668H151.332A39.668,39.668,0,0,0,191,162.881v-55.82A39.668,39.668,0,0,0,151.332,67.393ZM124.5,137.687,72.276,162.6a2.1,2.1,0,0,1-3-1.893V109.328a2.1,2.1,0,0,1,3.044-1.87l52.229,26.467A2.1,2.1,0,0,1,124.5,137.687Z" fill="#fab3ff" stroke="#000" stroke-width="2"/>
  </g>
</svg>